<svg xmlns="http://www.w3.org/2000/svg" width="14.867" height="19.92"><path fill="#489C54" d="M.049 10.658a7.882 7.882 0 01.245-3.013c.88-3.126 3.639-5.426 6.913-5.466V.134c0-.113.136-.174.226-.105l4.036 3.09c.066.053.066.158 0 .207l-4.032 3.09c-.094.069-.227.008-.227-.105v-2.04c-2.152.036-3.989 1.419-4.779 3.374a5.623 5.623 0 00.743 5.543 1.075 1.075 0 01-.191 1.5.984.984 0 01-1.393-.202 7.663 7.663 0 01-1.541-3.828zm11.653-3.926a5.546 5.546 0 011.152 3.134 5.681 5.681 0 01-.409 2.409c-.79 1.955-2.627 3.341-4.779 3.374v-2.04c0-.114-.136-.174-.226-.105l-4.036 3.09c-.066.052-.066.158 0 .207l4.032 3.09c.093.069.226.008.226-.105v-2.044c3.273-.036 6.037-2.335 6.912-5.466a7.982 7.982 0 00.246-3.013 7.616 7.616 0 00-1.538-3.828c-.342-.446-.953-.54-1.393-.203a1.077 1.077 0 00-.187 1.5z"/></svg>