<svg xmlns="http://www.w3.org/2000/svg" width="25" height="25"><path fill="#677684" d="M24.218 12.5c0-3.235-1.312-6.166-3.432-8.286-2.121-2.12-5.051-3.432-8.287-3.432S6.334 2.093 4.214 4.213A11.683 11.683 0 00.781 12.5c0 3.236 1.312 6.167 3.432 8.287s5.051 3.432 8.286 3.432 6.166-1.312 8.286-3.432a11.683 11.683 0 003.433-8.287zm-2.88-8.838A12.458 12.458 0 0125 12.5c0 3.452-1.399 6.577-3.662 8.839C19.076 23.601 15.951 25 12.5 25s-6.577-1.399-8.839-3.661A12.465 12.465 0 010 12.5a12.46 12.46 0 013.661-8.838A12.458 12.458 0 0112.5 0c3.451 0 6.576 1.399 8.838 3.662z"/><path fill="#677684" d="M12.11 17.97a.39.39 0 110 .781H8.984a.391.391 0 010-.781h3.126zm1.562-3.906a.39.39 0 110-.782c.754 0 1.439-.306 1.934-.801l.022-.021c.481-.491.78-1.167.78-1.913 0-.755-.307-1.439-.802-1.934l-.021-.021a2.721 2.721 0 00-1.913-.781H8.984a.392.392 0 010-.782h4.688c.956 0 1.826.384 2.461 1.008l.025.022a3.512 3.512 0 01.023 4.947l-.023.025a3.494 3.494 0 01-2.486 1.033z"/><path fill="#677684" d="M8.984 14.064a.39.39 0 110-.782h4.687a.39.39 0 110 .782H8.984z"/><path fill="#677684" d="M10.937 18.36a.39.39 0 01-.782 0V7.423a.39.39 0 01.782 0V18.36z"/><path fill="#677684" d="M8.984 15.626a.39.39 0 110-.782h5.47a.39.39 0 110 .782h-5.47z"/></svg>