<svg xmlns="http://www.w3.org/2000/svg" width="25.257" height="21.875"><path d="M9.435 17.698a2.1 2.1 0 00-2.11 2.09c0 1.153.945 2.09 2.11 2.09s2.109-.937 2.109-2.09a2.1 2.1 0 00-2.109-2.09zm9.206 0a2.1 2.1 0 00-2.11 2.09 2.1 2.1 0 002.11 2.09 2.1 2.1 0 002.108-2.09 2.098 2.098 0 00-2.108-2.09zm5.298-11.455l-11.685-.001c-.584 0-1.058.469-1.058 1.048s.474 1.048 1.058 1.048l10.337-.001-.655 2.199-10.511.002c-.542 0-.981.435-.981.972s.439.972.981.972l9.93.004-.617 2.056H8.894l-.786-6.206-.75-6.046a1.18 1.18 0 00-.883-.991L1.479.037A1.187 1.187 0 00.037.885a1.173 1.173 0 00.856 1.428l4.214 1.065 1.642 12.203s.056 1.422 1.361 1.422h13.093c1.098 0 1.31-1.133 1.31-1.133l2.595-7.635c-.002-.001.767-1.992-1.169-1.992z" fill="#FFF"/></svg>