<svg xmlns="http://www.w3.org/2000/svg" width="25.257" height="21.876"><path d="M9.435 17.698a2.1 2.1 0 00-2.11 2.089 2.1 2.1 0 002.11 2.09 2.1 2.1 0 002.109-2.09 2.1 2.1 0 00-2.109-2.089zm9.206 0c-1.166 0-2.11.935-2.11 2.089a2.1 2.1 0 002.11 2.09 2.1 2.1 0 002.109-2.09 2.1 2.1 0 00-2.109-2.089zm5.298-11.455l-11.685-.001c-.584 0-1.058.469-1.058 1.048 0 .579.474 1.048 1.058 1.048l10.338-.001-.656 2.199-10.511.002c-.542 0-.981.435-.981.972s.439.972.981.972l9.93.004-.617 2.056H8.894l-.786-6.206-.75-6.046a1.18 1.18 0 00-.883-.991L1.479.037A1.187 1.187 0 00.037.885a1.173 1.173 0 00.856 1.428l4.214 1.065L6.749 15.58s.056 1.423 1.361 1.423h13.093c1.097 0 1.309-1.133 1.309-1.133l2.595-7.635c-.001-.001.768-1.992-1.168-1.992z" fill="#F15A23"/></svg>