<?xml version="1.0" encoding="utf-8"?>
<!-- Generator: Adobe Illustrator 16.0.0, SVG Export Plug-In . SVG Version: 6.00 Build 0)  -->
<!DOCTYPE svg PUBLIC "-//W3C//DTD SVG 1.1//EN" "http://www.w3.org/Graphics/SVG/1.1/DTD/svg11.dtd">
<svg version="1.1" id="Слой_1" xmlns="http://www.w3.org/2000/svg" xmlns:xlink="http://www.w3.org/1999/xlink" x="0px" y="0px"
	 width="20px" height="21px" viewBox="0 0 20 21" enable-background="new 0 0 20 21" xml:space="preserve">
<path fill="#FFFFFF" d="M19.362,11.737C19.788,11.115,20,10.429,20,9.68c0-0.867-0.33-1.619-0.989-2.259
	c-0.66-0.639-1.441-0.959-2.344-0.959h-2.292C14.792,5.628,15,4.821,15,4.039c0-0.984-0.152-1.767-0.456-2.347
	c-0.304-0.581-0.747-1.008-1.329-1.281C12.634,0.136,11.979,0,11.25,0c-0.443,0-0.833,0.156-1.172,0.467
	C9.705,0.82,9.436,1.275,9.271,1.83C9.106,2.385,8.974,2.917,8.874,3.427c-0.1,0.509-0.254,0.868-0.462,1.079
	C7.986,4.951,7.521,5.49,7.018,6.121C6.142,7.223,5.547,7.875,5.234,8.077H1.667c-0.46,0-0.853,0.158-1.178,0.473
	C0.163,8.866,0,9.247,0,9.692v8.077c0,0.447,0.163,0.827,0.488,1.143c0.326,0.315,0.718,0.474,1.178,0.474h3.75
	c0.191,0,0.79,0.168,1.797,0.505c1.068,0.362,2.007,0.637,2.819,0.826C10.844,20.905,11.667,21,12.5,21h1.21h0.469
	c1.224,0,2.209-0.339,2.956-1.016c0.747-0.677,1.115-1.6,1.107-2.77c0.521-0.648,0.781-1.396,0.781-2.246
	c0-0.185-0.013-0.366-0.039-0.543c0.33-0.563,0.495-1.169,0.495-1.817C19.479,12.305,19.44,12.014,19.362,11.737z M3.086,17.53
	c-0.165,0.159-0.36,0.24-0.586,0.24s-0.421-0.08-0.586-0.24c-0.165-0.16-0.248-0.35-0.248-0.569c0-0.218,0.083-0.407,0.248-0.567
	c0.165-0.16,0.36-0.24,0.586-0.24s0.421,0.08,0.586,0.24c0.165,0.16,0.248,0.349,0.248,0.567C3.333,17.18,3.251,17.37,3.086,17.53z
	 M18.054,10.715c-0.187,0.387-0.419,0.585-0.696,0.593c0.13,0.143,0.238,0.343,0.325,0.6c0.087,0.257,0.13,0.49,0.13,0.701
	c0,0.581-0.23,1.081-0.69,1.501c0.157,0.269,0.235,0.56,0.235,0.87c0,0.312-0.076,0.621-0.229,0.928
	c-0.151,0.307-0.357,0.528-0.618,0.662c0.043,0.252,0.065,0.488,0.065,0.707c0,1.405-0.833,2.108-2.5,2.108H12.5
	c-1.138,0-2.622-0.307-4.454-0.921c-0.043-0.017-0.169-0.061-0.377-0.133c-0.208-0.071-0.362-0.124-0.462-0.158
	c-0.1-0.033-0.252-0.082-0.456-0.145c-0.205-0.063-0.369-0.11-0.495-0.139c-0.125-0.03-0.269-0.056-0.429-0.082
	c-0.161-0.025-0.298-0.038-0.41-0.038H5V9.692h0.417c0.139,0,0.293-0.038,0.462-0.113C6.048,9.503,6.222,9.39,6.4,9.239
	s0.345-0.301,0.501-0.448s0.33-0.333,0.521-0.555c0.191-0.223,0.341-0.402,0.449-0.537c0.109-0.134,0.245-0.307,0.41-0.517
	c0.165-0.21,0.265-0.336,0.3-0.378C9.058,6.23,9.393,5.848,9.583,5.655c0.356-0.362,0.614-0.823,0.774-1.382
	c0.161-0.56,0.293-1.088,0.397-1.584c0.104-0.496,0.27-0.854,0.495-1.072c0.833,0,1.39,0.198,1.667,0.593
	c0.277,0.396,0.417,1.006,0.417,1.83c0,0.496-0.208,1.171-0.625,2.025c-0.417,0.854-0.625,1.525-0.625,2.013h4.583
	c0.434,0,0.82,0.162,1.159,0.486c0.338,0.324,0.508,0.7,0.508,1.129C18.333,9.987,18.24,10.328,18.054,10.715z"/>
</svg>
