<?xml version="1.0" encoding="utf-8"?>
<!-- Generator: Adobe Illustrator 16.0.0, SVG Export Plug-In . SVG Version: 6.00 Build 0)  -->
<!DOCTYPE svg PUBLIC "-//W3C//DTD SVG 1.1//EN" "http://www.w3.org/Graphics/SVG/1.1/DTD/svg11.dtd">
<svg version="1.1" id="Слой_1" xmlns="http://www.w3.org/2000/svg" xmlns:xlink="http://www.w3.org/1999/xlink" x="0px" y="0px"
	 width="15px" height="13px" viewBox="0 0 15 13" enable-background="new 0 0 15 13" xml:space="preserve">
<path fill="#C7517A" d="M12.81,0.53C12.202,0.194,11.505,0,10.763,0C9.451,0,8.276,0.601,7.501,1.542C6.723,0.601,5.549,0,4.236,0
	C3.495,0,2.799,0.194,2.191,0.53C0.885,1.257,0,2.654,0,4.26C0,4.72,0.074,5.161,0.209,5.573C0.937,8.858,7.501,13,7.501,13
	s6.561-4.142,7.289-7.427C14.925,5.161,15,4.719,15,4.26C15,2.655,14.115,1.258,12.81,0.53z"/>
</svg>
