<?xml version="1.0" encoding="utf-8"?>
<!-- Generator: Adobe Illustrator 16.0.0, SVG Export Plug-In . SVG Version: 6.00 Build 0)  -->
<!DOCTYPE svg PUBLIC "-//W3C//DTD SVG 1.1//EN" "http://www.w3.org/Graphics/SVG/1.1/DTD/svg11.dtd">
<svg version="1.1" id="Слой_1" xmlns="http://www.w3.org/2000/svg" xmlns:xlink="http://www.w3.org/1999/xlink" x="0px" y="0px"
	 width="14.867px" height="19.92px" viewBox="0 0 14.867 19.92" enable-background="new 0 0 14.867 19.92" xml:space="preserve">
<path fill="#489C54" d="M0.049,10.658c-0.117-1.054-0.02-2.072,0.245-3.013c0.88-3.126,3.639-5.426,6.913-5.466V0.134
	c0-0.113,0.136-0.174,0.226-0.105l4.036,3.09c0.066,0.053,0.066,0.158,0,0.207l-4.032,3.09C7.343,6.485,7.21,6.424,7.21,6.311v-2.04
	C5.058,4.307,3.221,5.69,2.431,7.645c-0.299,0.737-0.451,1.553-0.409,2.409c0.059,1.176,0.483,2.258,1.152,3.134
	c0.358,0.466,0.272,1.147-0.191,1.5c-0.44,0.337-1.055,0.244-1.393-0.202C0.761,13.407,0.208,12.093,0.049,10.658z M11.702,6.732
	c0.673,0.872,1.098,1.958,1.152,3.134c0.042,0.86-0.113,1.675-0.409,2.409c-0.79,1.955-2.627,3.341-4.779,3.374v-2.04
	c0-0.114-0.136-0.174-0.226-0.105l-4.036,3.09c-0.066,0.052-0.066,0.158,0,0.207l4.032,3.09c0.093,0.069,0.226,0.008,0.226-0.105
	v-2.044c3.273-0.036,6.037-2.335,6.912-5.466c0.265-0.941,0.358-1.959,0.246-3.013c-0.156-1.436-0.708-2.75-1.538-3.828
	c-0.342-0.446-0.953-0.54-1.393-0.203C11.429,5.585,11.344,6.266,11.702,6.732z"/>
</svg>
