<?xml version="1.0" encoding="utf-8"?>
<!-- Generator: Adobe Illustrator 16.0.0, SVG Export Plug-In . SVG Version: 6.00 Build 0)  -->
<!DOCTYPE svg PUBLIC "-//W3C//DTD SVG 1.1//EN" "http://www.w3.org/Graphics/SVG/1.1/DTD/svg11.dtd">
<svg version="1.1" id="Слой_1" xmlns="http://www.w3.org/2000/svg" xmlns:xlink="http://www.w3.org/1999/xlink" x="0px" y="0px"
	 width="22.027px" height="22px" viewBox="0 0 22.027 22" enable-background="new 0 0 22.027 22" xml:space="preserve">
<path fill="#F16028" d="M21.692,20.038l-5.43-5.445c1.396-1.601,2.161-3.614,2.161-5.71C18.423,3.985,14.291,0,9.211,0
	C4.132,0,0,3.985,0,8.883c0,4.897,4.132,8.882,9.211,8.882c1.907,0,3.724-0.555,5.278-1.607l5.471,5.487
	C20.189,21.874,20.497,22,20.826,22c0.313,0,0.608-0.115,0.833-0.323C22.137,21.234,22.152,20.499,21.692,20.038z M9.211,2.317
	c3.754,0,6.809,2.945,6.809,6.565c0,3.62-3.055,6.565-6.809,6.565s-6.809-2.945-6.809-6.565C2.403,5.262,5.457,2.317,9.211,2.317z"
	/>
</svg>
