<?xml version="1.0" encoding="utf-8"?>
<!-- Generator: Adobe Illustrator 16.0.0, SVG Export Plug-In . SVG Version: 6.00 Build 0)  -->
<!DOCTYPE svg PUBLIC "-//W3C//DTD SVG 1.1//EN" "http://www.w3.org/Graphics/SVG/1.1/DTD/svg11.dtd">
<svg version="1.1" id="Слой_1" xmlns="http://www.w3.org/2000/svg" xmlns:xlink="http://www.w3.org/1999/xlink" x="0px" y="0px"
	 width="32px" height="15px" viewBox="0 0 32 15" enable-background="new 0 0 32 15" xml:space="preserve">
<path fill-rule="evenodd" clip-rule="evenodd" fill="#F2683D" d="M1,0h30c0.552,0,1,0.448,1,1v1c0,0.552-0.448,1-1,1H1
	C0.448,3,0,2.553,0,2V1C0,0.448,0.448,0,1,0z"/>
<path fill-rule="evenodd" clip-rule="evenodd" fill="#F2683D" d="M1,6h30c0.552,0,1,0.448,1,1v1c0,0.553-0.448,1-1,1H1
	C0.448,9,0,8.553,0,8V7C0,6.448,0.448,6,1,6z"/>
<path fill-rule="evenodd" clip-rule="evenodd" fill="#F2683D" d="M1,12h30c0.552,0,1,0.448,1,1v1c0,0.552-0.448,1-1,1H1
	c-0.552,0-1-0.448-1-1v-1C0,12.448,0.448,12,1,12z"/>
</svg>
