<?xml version="1.0" encoding="utf-8"?>
<!-- Generator: Adobe Illustrator 16.0.0, SVG Export Plug-In . SVG Version: 6.00 Build 0)  -->
<!DOCTYPE svg PUBLIC "-//W3C//DTD SVG 1.1//EN" "http://www.w3.org/Graphics/SVG/1.1/DTD/svg11.dtd">
<svg version="1.1" id="Слой_1" xmlns="http://www.w3.org/2000/svg" xmlns:xlink="http://www.w3.org/1999/xlink" x="0px" y="0px"
	 width="25px" height="25px" viewBox="0 0 25 25" enable-background="new 0 0 25 25" xml:space="preserve">
<path fill="#677684" d="M24.218,12.5c0-3.235-1.312-6.166-3.432-8.286c-2.121-2.12-5.051-3.432-8.287-3.432S6.334,2.093,4.214,4.213
	C2.093,6.334,0.781,9.264,0.781,12.5c0,3.236,1.312,6.167,3.432,8.287s5.051,3.432,8.286,3.432s6.166-1.312,8.286-3.432
	C22.906,18.666,24.218,15.736,24.218,12.5L24.218,12.5z M21.338,3.662C23.6,5.923,25,9.048,25,12.5c0,3.452-1.399,6.577-3.662,8.839
	C19.076,23.601,15.951,25,12.5,25s-6.577-1.399-8.839-3.661C1.4,19.077,0,15.952,0,12.5c0-3.451,1.399-6.576,3.661-8.838
	C5.922,1.4,9.047,0,12.5,0C15.951,0,19.076,1.399,21.338,3.662z"/>
<path fill="#677684" d="M12.11,17.97c0.215,0,0.391,0.174,0.391,0.391c0,0.215-0.175,0.39-0.391,0.39H8.984
	c-0.215,0-0.391-0.175-0.391-0.39c0-0.216,0.175-0.391,0.391-0.391H12.11z"/>
<path fill="#677684" d="M13.672,14.064c-0.216,0-0.391-0.175-0.391-0.391s0.175-0.391,0.391-0.391c0.754,0,1.439-0.306,1.934-0.801
	l0.022-0.021c0.481-0.491,0.78-1.167,0.78-1.913c0-0.755-0.307-1.439-0.802-1.934l-0.021-0.021
	c-0.492-0.483-1.167-0.781-1.913-0.781H8.984c-0.215,0-0.391-0.175-0.391-0.391c0-0.216,0.175-0.391,0.391-0.391h4.688
	c0.956,0,1.826,0.384,2.461,1.008l0.025,0.022c0.635,0.636,1.03,1.516,1.03,2.487c0,0.956-0.384,1.825-1.007,2.46l-0.023,0.025
	C15.523,13.67,14.643,14.064,13.672,14.064z"/>
<path fill="#677684" d="M8.984,14.064c-0.216,0-0.391-0.175-0.391-0.391s0.175-0.391,0.391-0.391h4.687
	c0.216,0,0.391,0.175,0.391,0.391s-0.175,0.391-0.391,0.391H8.984z"/>
<path fill="#677684" d="M10.937,18.36c0,0.215-0.175,0.39-0.391,0.39c-0.216,0-0.391-0.175-0.391-0.39V7.423
	c0-0.215,0.175-0.39,0.391-0.39c0.215,0,0.391,0.175,0.391,0.39V18.36z"/>
<path fill="#677684" d="M8.984,15.626c-0.216,0-0.391-0.175-0.391-0.391c0-0.216,0.175-0.391,0.391-0.391h5.47
	c0.216,0,0.391,0.175,0.391,0.391c0,0.215-0.175,0.391-0.391,0.391H8.984z"/>
</svg>
