<?xml version="1.0" encoding="utf-8"?>
<!-- Generator: Adobe Illustrator 16.0.0, SVG Export Plug-In . SVG Version: 6.00 Build 0)  -->
<!DOCTYPE svg PUBLIC "-//W3C//DTD SVG 1.1//EN" "http://www.w3.org/Graphics/SVG/1.1/DTD/svg11.dtd">
<svg version="1.1" id="Слой_1" xmlns="http://www.w3.org/2000/svg" xmlns:xlink="http://www.w3.org/1999/xlink" x="0px" y="0px"
	 width="25.257px" height="21.875px" viewBox="0 0 25.257 21.875" enable-background="new 0 0 25.257 21.875" xml:space="preserve">
<g>
	<path fill="#FFFFFF" d="M9.435,17.698c-1.165,0-2.11,0.936-2.11,2.09c0,1.153,0.945,2.09,2.11,2.09s2.109-0.937,2.109-2.09
		C11.543,18.633,10.599,17.698,9.435,17.698z"/>
	<path fill="#FFFFFF" d="M18.641,17.698c-1.166,0-2.11,0.936-2.11,2.09c0,1.153,0.944,2.09,2.11,2.09
		c1.165,0,2.108-0.937,2.108-2.09C20.75,18.633,19.805,17.698,18.641,17.698z"/>
	<path fill="#FFFFFF" d="M23.939,6.243L12.254,6.242c-0.584,0-1.058,0.469-1.058,1.048s0.474,1.048,1.058,1.048l10.337-0.001
		l-0.655,2.199l-10.511,0.002c-0.542,0-0.981,0.435-0.981,0.972s0.439,0.972,0.981,0.972l9.93,0.004l-0.617,2.056H8.894L8.108,8.336
		L7.358,2.29C7.297,1.812,6.947,1.419,6.475,1.299L1.479,0.037c-0.634-0.16-1.28,0.219-1.442,0.848
		c-0.162,0.628,0.221,1.268,0.856,1.428l4.214,1.065l1.642,12.203c0,0,0.056,1.422,1.361,1.422h13.093
		c1.098,0,1.31-1.133,1.31-1.133l2.595-7.635C25.106,8.234,25.875,6.243,23.939,6.243z"/>
</g>
</svg>
